<svg xmlns="http://www.w3.org/2000/svg" viewBox="0 0 500 500"><path d="M297.164 116.689c-1.835.904-3.936 2.582-4.669 3.728C288.252 127.049 181 407.973 181 412.455c0 11.163 13.822 16.936 22.253 9.295 4.593-4.163 113.75-285.376 113.743-293.028-.009-10.459-10.325-16.717-19.832-12.033m3.483 7.58c-1.847 1.35-110.625 280.96-111.388 286.319-.704 4.94 4.339 8.222 8.539 5.558C199.454 415.095 309 131.758 309 128.525c0-4.113-5.038-6.68-8.353-4.256M172.5 168.674c-1.1.291-3.575 1.703-5.5 3.136-11.318 8.429-110.9 87.405-112.834 89.486-4.283 4.609-4.547 13.414-.534 17.852 2.605 2.88 111.969 88.954 115.754 91.102 9.075 5.151 20.614-1.426 20.614-11.75 0-6.851-1.221-7.975-52.135-48.007-27.151-21.347-49.734-39.133-50.184-39.523-.451-.39 20.249-17.262 46-37.494 50.249-39.481 52.748-41.56 54.904-45.676 5.177-9.882-5.055-22.047-16.085-19.126m145.52 1.029c-7.191 3.713-10.003 12.235-6.27 18.998 1.107 2.005 20.067 17.584 51.566 42.369 27.399 21.559 49.449 39.515 49 39.903-.449.389-22.98 18.128-50.069 39.422-29.839 23.455-49.843 39.856-50.75 41.61-5.836 11.287 5.779 23.812 17.688 19.074 2.293-.912 111.18-86.118 115.626-90.479 5.308-5.207 5.784-14.181 1.023-19.304-1.876-2.019-99.599-79.545-112.868-89.541-4.763-3.589-10.455-4.37-14.946-2.052m-201.77 52.396c-65.192 51.317-61.375 47.266-52 55.177 4.936 4.165 87.3 69.218 102.815 81.206 4.057 3.135 8.167 5.518 9.515 5.518 3.329 0 6.06-4.301 4.669-7.353-.569-1.248-24.933-21.111-54.142-44.138-29.209-23.027-53.079-42.124-53.045-42.438.034-.314 23.261-18.796 51.617-41.071 28.356-22.275 52.628-41.491 53.939-42.702 2.752-2.544 3.059-5.478.811-7.727-3.842-3.841-5-3.056-64.179 43.528m203.375-43.582c-2.3 2.301-2.016 5.218.76 7.781 1.311 1.211 25.581 20.427 53.933 42.702s51.579 40.757 51.615 41.071c.037.314-23.671 19.293-52.683 42.176-29.012 22.883-53.312 42.178-54 42.879-2.976 3.033-.03 8.874 4.475 8.874 1.138 0 5.152-2.384 8.922-5.298 15.43-11.929 98.235-77.329 103.103-81.432 9.377-7.903 13.161-3.884-51.736-54.939-58.557-46.066-60.687-47.516-64.389-43.814" fill-rule="evenodd"/></svg>